<svg width="143" height="222" viewBox="0 0 143 222" fill="none" xmlns="http://www.w3.org/2000/svg">
<path d="M121.256 61.2523C121.256 69.6989 115.853 80.3806 106.918 88.9926C98.0088 97.5794 85.7459 103.951 72.2563 103.951C58.7668 103.951 46.5039 97.5794 37.595 88.9926C28.6599 80.3806 23.2563 69.6989 23.2563 61.2523C23.2563 52.8967 28.5631 45.1905 37.4391 39.524C46.3036 33.8649 58.6106 30.3319 72.2563 30.3319C85.902 30.3319 98.2091 33.8649 107.074 39.524C115.95 45.1905 121.256 52.8967 121.256 61.2523Z" fill="white" stroke="black" stroke-width="2"/>
<path d="M68.4373 14.4327H69.4373V13.4327V1.40649H74.4205V13.4327V14.4327H75.4205H87.4468V19.4159H75.4205H74.4205V20.4159V32.4423H69.4373V20.4159V19.4159H68.4373H56.4111V14.4327H68.4373Z" fill="white" stroke="black" stroke-width="2"/>
<rect x="30.6647" y="89.6343" width="82.5286" height="3.36703" rx="1.68352" fill="white" stroke="black" stroke-width="2"/>
<path d="M34.3234 174.22V170.197C43.8359 159.241 49.5946 144.934 49.5946 129.286C49.5946 116.508 45.7553 104.625 39.1675 94.7302H104.69C98.1026 104.625 94.2633 116.508 94.2633 129.286C94.2633 144.934 100.022 159.241 109.535 170.197V174.22H34.3234Z" fill="white" stroke="black" stroke-width="2"/>
<rect x="30.6647" y="94.7302" width="82.5286" height="9.22081" rx="4.61041" fill="white" stroke="black" stroke-width="2"/>
<rect x="23.2563" y="176.22" width="97.3452" height="12.9595" fill="white" stroke="black" stroke-width="2"/>
<rect x="10.225" y="191.18" width="123.408" height="13.707" fill="white" stroke="black" stroke-width="2"/>
<rect x="1.91791" y="206.886" width="140.022" height="13.707" fill="white" stroke="black" stroke-width="2"/>
<circle cx="72.2177" cy="16.7923" r="6.73348" fill="white" stroke="black" stroke-width="2"/>
</svg>
