<svg width="187" height="210" viewBox="0 0 187 210" fill="none" xmlns="http://www.w3.org/2000/svg">
<path d="M80.8244 1.55334C74.0618 1.55334 75.6086 15.3424 77.2273 22.2369C75.4006 27.4398 69.3362 29.7418 65.8121 32.4115C62.2881 35.0813 65.385 39.0325 59.0844 42.1293C52.7839 45.2262 46.0562 50.886 33.989 60.4971C21.9218 70.1081 14.6602 73.5253 6.97138 74.4864C0.820332 75.2553 1.13358 79.9327 2.05909 82.1752L20.4268 102.679H28.6496C29.1835 99.6887 32.8143 94.1356 41.1439 92.9609C49.4734 91.7863 68.4819 96.1646 80.1219 90.1844C89.4339 85.4003 95.6063 75.7323 97.5285 71.4963L94.4874 80.3841C86.7991 101.527 54.2443 112.418 38.9278 115.221C33.4019 126.634 47.7264 149.756 55.5794 159.891V163.48H136.76V160.187C148.127 148.82 154.598 124.627 156.413 113.952C156.824 124.504 149.474 145.796 145.747 155.123L171.1 163.597C186.188 140.562 192.949 101.921 173.022 63.0771C157.039 31.9192 124.569 22.1698 110.332 21.1898L109.601 25.2944C98.3784 5.86989 85.7405 1.37348 80.8244 1.55334Z" fill="white" stroke="black" stroke-width="2"/>
<rect x="45.9963" y="164.078" width="97.3452" height="12.9595" fill="white" stroke="black" stroke-width="2"/>
<rect x="32.9651" y="179.038" width="123.408" height="13.707" fill="white" stroke="black" stroke-width="2"/>
<rect x="24.658" y="194.745" width="140.022" height="13.707" fill="white" stroke="black" stroke-width="2"/>
</svg>
