<svg width="143" height="223" viewBox="0 0 143 223" fill="none" xmlns="http://www.w3.org/2000/svg">
<path d="M120.596 61.7523C120.596 70.1989 115.193 80.8806 106.258 89.4926C97.3489 98.0794 85.086 104.451 71.5965 104.451C58.107 104.451 45.8441 98.0794 36.9351 89.4926C28.0001 80.8806 22.5965 70.1989 22.5965 61.7523C22.5965 53.3967 27.9033 45.6905 36.7793 40.024C45.6438 34.3649 57.9508 30.8319 71.5965 30.8319C85.2422 30.8319 97.5492 34.3649 106.414 40.024C115.29 45.6905 120.596 53.3967 120.596 61.7523Z" fill="#333333" stroke="black" stroke-width="2"/>
<path d="M67.7775 14.9327H68.7775V13.9327V1.90649H73.7607V13.9327V14.9327H74.7607H86.787V19.9159H74.7607H73.7607V20.9159V32.9423H68.7775V20.9159V19.9159H67.7775H55.7512V14.9327H67.7775Z" fill="#333333" stroke="black" stroke-width="2"/>
<rect x="30.0049" y="90.1343" width="82.5286" height="3.36703" rx="1.68352" fill="#333333" stroke="black" stroke-width="2"/>
<path d="M33.6635 174.72V170.697C43.176 159.741 48.9348 145.434 48.9348 129.786C48.9348 117.008 45.0955 105.125 38.5077 95.2302H104.031C97.4428 105.125 93.6035 117.008 93.6035 129.786C93.6035 145.434 99.3623 159.741 108.875 170.697V174.72H33.6635Z" fill="#333333" stroke="black" stroke-width="2"/>
<rect x="30.0049" y="95.2302" width="82.5286" height="9.22081" rx="4.61041" fill="#333333" stroke="black" stroke-width="2"/>
<rect x="22.5965" y="176.72" width="97.3452" height="12.9595" fill="#333333" stroke="black" stroke-width="2"/>
<rect x="9.56519" y="191.68" width="123.408" height="13.707" fill="#333333" stroke="black" stroke-width="2"/>
<rect x="1.25806" y="207.386" width="140.022" height="13.707" fill="#333333" stroke="black" stroke-width="2"/>
<circle cx="71.5578" cy="17.2923" r="6.73348" fill="#333333" stroke="black" stroke-width="2"/>
</svg>
