<svg width="143" height="163" viewBox="0 0 143 163" fill="none" xmlns="http://www.w3.org/2000/svg">
<path d="M31.9161 45.8163C33.1806 46.3474 35.7096 47.8081 35.7096 49.4017C35.7096 50.9952 29.6399 96.0121 26.6051 118.321C26.0993 119.782 24.6324 122.823 22.8115 123.301C20.9906 123.779 54.4246 123.5 71.3692 123.301C88.3138 123.5 121.748 123.779 119.927 123.301C118.106 122.823 116.639 119.782 116.133 118.321C113.098 96.0121 107.029 50.9952 107.029 49.4017C107.029 47.8081 109.558 46.3474 110.822 45.8163H71.3692H31.9161Z" fill="white" stroke="black" stroke-width="2"/>
<rect x="17.1729" y="35.5955" width="108.393" height="9.22081" rx="4.61041" fill="white" stroke="black" stroke-width="2"/>
<rect x="22.6965" y="117.085" width="97.3452" height="12.9595" fill="white" stroke="black" stroke-width="2"/>
<rect x="9.66522" y="132.045" width="123.408" height="13.707" fill="white" stroke="black" stroke-width="2"/>
<rect x="1.35809" y="147.752" width="140.022" height="13.707" fill="white" stroke="black" stroke-width="2"/>
<path d="M125.476 1.01538L122.947 36.0901L108.737 34.9591H20.565L15.5527 1.23973H41.07L42.437 26.833H58.9929V1.23973H83.2952V26.833H108.737L108.501 1.28855L125.476 1.01538Z" fill="#F1F1F1"/>
<path d="M120.4 21.2449L121.611 1.28735H125.296L123.979 21.2449H124.006L123.63 26.5459L123.454 29.2176H123.44L122.947 36.1795H19.7555L15.3935 1.37219H34.664L36.2297 21.2449H47.5511L45.865 1.37219H72.3619V21.2449H88.6214V1.37219H112.348V21.2449H120.4Z" fill="white" stroke="black" stroke-width="2"/>
</svg>
