<svg width="143" height="205" viewBox="0 0 143 205" fill="none" xmlns="http://www.w3.org/2000/svg">
<rect x="29.8049" y="72.9528" width="82.5286" height="3.36703" rx="1.68352" fill="white" stroke="black" stroke-width="2"/>
<path d="M33.4635 157.539V153.516C42.976 142.559 48.7348 128.253 48.7348 112.604C48.7348 99.8269 44.8955 87.9437 38.3077 78.0487H103.831C97.2428 87.9437 93.4035 99.8269 93.4035 112.604C93.4035 128.253 99.1623 142.559 108.675 153.516V157.539H33.4635Z" fill="white" stroke="black" stroke-width="2"/>
<rect x="29.8049" y="78.0487" width="82.5286" height="9.22081" rx="4.61041" fill="white" stroke="black" stroke-width="2"/>
<rect x="22.3965" y="159.539" width="97.3452" height="12.9595" fill="white" stroke="black" stroke-width="2"/>
<rect x="9.3652" y="174.498" width="123.408" height="13.707" fill="white" stroke="black" stroke-width="2"/>
<rect x="1.05807" y="190.205" width="140.022" height="13.707" fill="white" stroke="black" stroke-width="2"/>
<mask id="path-7-inside-1_2_1711" fill="white">
<path fill-rule="evenodd" clip-rule="evenodd" d="M80.5598 22.8502C82.9152 20.4933 84.372 17.2382 84.372 13.6428C84.372 6.44916 78.5403 0.617554 71.3467 0.617554C64.153 0.617554 58.3214 6.44916 58.3214 13.6428C58.3214 17.2382 59.7782 20.4933 62.1336 22.8502L49.4741 37.8502L71.3467 51.9813L93.2193 37.8502L80.5598 22.8502Z"/>
</mask>
<path fill-rule="evenodd" clip-rule="evenodd" d="M80.5598 22.8502C82.9152 20.4933 84.372 17.2382 84.372 13.6428C84.372 6.44916 78.5403 0.617554 71.3467 0.617554C64.153 0.617554 58.3214 6.44916 58.3214 13.6428C58.3214 17.2382 59.7782 20.4933 62.1336 22.8502L49.4741 37.8502L71.3467 51.9813L93.2193 37.8502L80.5598 22.8502Z" fill="white"/>
<path d="M80.5598 22.8502L79.1452 21.4364L77.8464 22.736L79.0314 24.1401L80.5598 22.8502ZM62.1336 22.8502L63.662 24.1401L64.847 22.736L63.5482 21.4364L62.1336 22.8502ZM49.4741 37.8502L47.9457 36.5602L46.48 38.2969L48.3888 39.5301L49.4741 37.8502ZM71.3467 51.9813L70.2614 53.6612L71.3467 54.3624L72.432 53.6612L71.3467 51.9813ZM93.2193 37.8502L94.3046 39.5301L96.2134 38.2969L94.7477 36.5602L93.2193 37.8502ZM82.372 13.6428C82.372 16.6867 81.1411 19.4393 79.1452 21.4364L81.9745 24.264C84.6894 21.5474 86.372 17.7897 86.372 13.6428H82.372ZM71.3467 2.61755C77.4358 2.61755 82.372 7.55373 82.372 13.6428H86.372C86.372 5.34459 79.6449 -1.38245 71.3467 -1.38245V2.61755ZM60.3214 13.6428C60.3214 7.55373 65.2576 2.61755 71.3467 2.61755V-1.38245C63.0485 -1.38245 56.3214 5.34459 56.3214 13.6428H60.3214ZM63.5482 21.4364C61.5523 19.4393 60.3214 16.6867 60.3214 13.6428H56.3214C56.3214 17.7897 58.004 21.5474 60.7189 24.264L63.5482 21.4364ZM60.6052 21.5603L47.9457 36.5602L51.0025 39.1401L63.662 24.1401L60.6052 21.5603ZM48.3888 39.5301L70.2614 53.6612L72.432 50.3014L50.5594 36.1703L48.3888 39.5301ZM72.432 53.6612L94.3046 39.5301L92.134 36.1703L70.2614 50.3014L72.432 53.6612ZM94.7477 36.5602L82.0882 21.5603L79.0314 24.1401L91.6909 39.1401L94.7477 36.5602Z" fill="black" mask="url(#path-7-inside-1_2_1711)"/>
<path d="M36.091 74.6363C33.6564 67.9411 26.3969 52.5589 16.8355 44.5911C7.27422 36.6233 15.3969 34.7421 20.6534 34.7974C23.4129 35.3771 30.1878 37.342 35.2111 40.5639C38.4091 42.6149 38.2243 39.6451 38.0004 36.0452C37.7846 32.5768 37.5324 28.5234 40.2344 27.8123C45.6943 26.3755 50.0144 30.1625 57.7153 36.9132L57.9127 37.0862C61.9438 40.6197 62.9733 37.3049 64.2295 33.2602C65.4117 29.4538 66.7947 25.001 71.0692 25.001C75.3436 25.001 76.7266 29.4538 77.9088 33.2602C79.165 37.3049 80.1945 40.6197 84.2256 37.0862L84.423 36.9132C92.1239 30.1625 96.444 26.3755 101.904 27.8123C104.606 28.5234 104.354 32.5768 104.138 36.0452C103.914 39.6451 103.729 42.6149 106.927 40.5639C111.951 37.342 118.725 35.3771 121.485 34.7974C126.741 34.7421 134.864 36.6233 125.303 44.5911C115.741 52.5589 108.482 67.9411 106.047 74.6363H36.091Z" fill="white" stroke="black" stroke-width="2"/>
</svg>
