<svg width="143" height="223" viewBox="0 0 143 223" fill="none" xmlns="http://www.w3.org/2000/svg">
<circle cx="71.8708" cy="15.5616" r="13.8859" fill="#333333" stroke="black" stroke-width="2"/>
<rect x="59.4997" y="27.1194" width="24.339" height="1.73029" rx="0.865147" fill="#333333" stroke="black" stroke-width="1.73029"/>
<path d="M34.0635 175.425V171.402C43.5761 160.446 49.3348 146.139 49.3348 130.491C49.3348 117.714 45.4955 105.83 38.9077 95.9353H104.431C97.8428 105.83 94.0035 117.714 94.0035 130.491C94.0035 146.139 99.7623 160.446 109.275 171.402V175.425H34.0635Z" fill="#333333" stroke="black" stroke-width="2"/>
<path fill-rule="evenodd" clip-rule="evenodd" d="M71.6692 27.9845H64.2615L33.284 72.5205C30.575 77.1536 28.7833 88.1228 43.2887 94.9354H71.6692H100.05C114.555 88.1228 112.763 77.1536 110.054 72.5205L79.0769 27.9845H71.6692Z" fill="#333333"/>
<path d="M64.2615 27.9845V26.9845H63.739L63.4406 27.4135L64.2615 27.9845ZM33.284 72.5205L32.4631 71.9495L32.4406 71.9818L32.4208 72.0158L33.284 72.5205ZM43.2887 94.9354L42.8636 95.8405L43.0656 95.9354H43.2887V94.9354ZM100.05 94.9354V95.9354H100.273L100.475 95.8405L100.05 94.9354ZM110.054 72.5205L110.918 72.0158L110.898 71.9818L110.875 71.9495L110.054 72.5205ZM79.0769 27.9845L79.8978 27.4135L79.5994 26.9845H79.0769V27.9845ZM64.2615 28.9845H71.6692V26.9845H64.2615V28.9845ZM34.105 73.0916L65.0825 28.5555L63.4406 27.4135L32.4631 71.9495L34.105 73.0916ZM43.7138 94.0302C36.6785 90.7261 33.743 86.4966 32.802 82.6717C31.8488 78.7974 32.8978 75.1621 34.1473 73.0253L32.4208 72.0158C30.9612 74.512 29.7598 78.6778 30.8599 83.1495C31.9721 87.6706 35.3934 92.3321 42.8636 95.8405L43.7138 94.0302ZM71.6692 93.9354H43.2887V95.9354H71.6692V93.9354ZM71.6692 95.9354H100.05V93.9354H71.6692V95.9354ZM100.475 95.8405C107.945 92.3321 111.366 87.6706 112.479 83.1495C113.579 78.6778 112.377 74.512 110.918 72.0158L109.191 73.0253C110.441 75.1621 111.49 78.7974 110.536 82.6717C109.595 86.4966 106.66 90.7261 99.6246 94.0302L100.475 95.8405ZM110.875 71.9495L79.8978 27.4135L78.2559 28.5555L109.233 73.0916L110.875 71.9495ZM79.0769 26.9845H71.6692V28.9845H79.0769V26.9845Z" fill="black"/>
<rect x="30.4049" y="95.9353" width="82.5286" height="9.22081" rx="4.61041" fill="#333333" stroke="black" stroke-width="2"/>
<rect x="22.9965" y="177.425" width="97.3452" height="12.9595" fill="#333333" stroke="black" stroke-width="2"/>
<rect x="9.96521" y="192.385" width="123.408" height="13.707" fill="#333333" stroke="black" stroke-width="2"/>
<rect x="1.65808" y="208.092" width="140.022" height="13.707" fill="#333333" stroke="black" stroke-width="2"/>
</svg>
