<svg width="143" height="223" viewBox="0 0 143 223" fill="none" xmlns="http://www.w3.org/2000/svg">
<path d="M85.7567 15.6409C85.7567 23.2773 79.5431 29.4738 71.8708 29.4738C64.1984 29.4738 57.9849 23.2773 57.9849 15.6409C57.9849 8.00455 64.1984 1.80798 71.8708 1.80798C79.5431 1.80798 85.7567 8.00455 85.7567 15.6409Z" fill="white" stroke="black" stroke-width="2"/>
<rect x="59.4966" y="27.1576" width="24.3452" height="1.72413" rx="0.862067" fill="white" stroke="black" stroke-width="1.72413"/>
<path d="M34.0635 174.932V170.929C43.5758 160.012 49.3348 145.755 49.3348 130.161C49.3348 117.431 45.4968 105.591 38.9114 95.7322H104.427C97.8415 105.591 94.0035 117.431 94.0035 130.161C94.0035 145.755 99.7626 160.012 109.275 170.929V174.932H34.0635Z" fill="white" stroke="black" stroke-width="2"/>
<path fill-rule="evenodd" clip-rule="evenodd" d="M71.6692 28.0197H64.2615L33.284 72.3972C30.575 77.0138 28.7833 87.944 43.2887 94.7323H71.6692H100.05C114.555 87.944 112.763 77.0138 110.054 72.3972L79.0769 28.0197H71.6692Z" fill="white"/>
<path d="M64.2615 28.0197V27.0197H63.74L63.4415 27.4473L64.2615 28.0197ZM33.284 72.3972L32.464 71.8248L32.4415 71.8571L32.4216 71.8911L33.284 72.3972ZM43.2887 94.7323L42.8648 95.638L43.0663 95.7323H43.2887V94.7323ZM100.05 94.7323V95.7323H100.272L100.474 95.638L100.05 94.7323ZM110.054 72.3972L110.917 71.8911L110.897 71.8571L110.874 71.8248L110.054 72.3972ZM79.0769 28.0197L79.8969 27.4473L79.5984 27.0197H79.0769V28.0197ZM64.2615 29.0197H71.6692V27.0197H64.2615V29.0197ZM34.104 72.9696L65.0815 28.592L63.4415 27.4473L32.464 71.8248L34.104 72.9696ZM43.7126 93.8265C36.6766 90.5338 33.7422 86.3197 32.8018 82.5106C31.8492 78.6523 32.8975 75.0317 34.1465 72.9033L32.4216 71.8911C30.9615 74.3793 29.7595 78.5321 30.8601 82.99C31.9729 87.4973 35.3954 92.1424 42.8648 95.638L43.7126 93.8265ZM71.6692 93.7323H43.2887V95.7323H71.6692V93.7323ZM71.6692 95.7323H100.05V93.7323H71.6692V95.7323ZM100.474 95.638C107.943 92.1424 111.365 87.4973 112.478 82.99C113.579 78.5321 112.377 74.3793 110.917 71.8911L109.192 72.9033C110.441 75.0317 111.489 78.6523 110.537 82.5106C109.596 86.3197 106.662 90.5338 99.6258 93.8265L100.474 95.638ZM110.874 71.8248L79.8969 27.4473L78.2569 28.592L109.234 72.9696L110.874 71.8248ZM79.0769 27.0197H71.6692V29.0197H79.0769V27.0197Z" fill="black"/>
<rect x="30.4049" y="95.7322" width="82.5286" height="9.18089" rx="4.59044" fill="white" stroke="black" stroke-width="2"/>
<rect x="22.9965" y="176.932" width="97.3452" height="12.9063" fill="white" stroke="black" stroke-width="2"/>
<rect x="9.96521" y="191.838" width="123.408" height="13.6511" fill="white" stroke="black" stroke-width="2"/>
<rect x="1.65808" y="207.489" width="140.022" height="13.6511" fill="white" stroke="black" stroke-width="2"/>
</svg>
