<svg width="143" height="171" viewBox="0 0 143 171" fill="none" xmlns="http://www.w3.org/2000/svg">
<path d="M100.417 27.1788C100.417 41.2127 87.6544 52.7747 71.6692 52.7747C55.684 52.7747 42.9215 41.2127 42.9215 27.1788C42.9215 13.145 55.684 1.58301 71.6692 1.58301C87.6544 1.58301 100.417 13.145 100.417 27.1788Z" fill="white" stroke="black" stroke-width="2"/>
<path d="M34.0636 123.044V119.021C43.5761 108.064 49.3349 93.758 49.3349 78.1091C49.3349 65.332 45.4956 53.4489 38.9078 43.5538H104.431C97.8429 53.4489 94.0036 65.332 94.0036 78.1091C94.0036 93.758 99.7623 108.064 109.275 119.021V123.044H34.0636Z" fill="white" stroke="black" stroke-width="2"/>
<rect x="30.4049" y="43.5538" width="82.5286" height="9.22081" rx="4.61041" fill="white" stroke="black" stroke-width="2"/>
<rect x="22.9965" y="125.044" width="97.3452" height="12.9595" fill="white" stroke="black" stroke-width="2"/>
<rect x="9.96521" y="140.003" width="123.408" height="13.707" fill="white" stroke="black" stroke-width="2"/>
<rect x="1.65808" y="155.71" width="140.022" height="13.707" fill="white" stroke="black" stroke-width="2"/>
</svg>
