<svg width="187" height="209" viewBox="0 0 187 209" fill="none" xmlns="http://www.w3.org/2000/svg">
<path d="M80.8244 1.05334C74.0618 1.05334 75.6086 14.8424 77.2273 21.7369C75.4006 26.9398 69.3362 29.2418 65.8121 31.9115C62.2881 34.5813 65.385 38.5325 59.0844 41.6293C52.7839 44.7262 46.0562 50.386 33.989 59.9971C21.9218 69.6081 14.6602 73.0253 6.97138 73.9864C0.820332 74.7553 1.13358 79.4327 2.05909 81.6752L20.4268 102.179H28.6496C29.1835 99.1887 32.8143 93.6356 41.1439 92.4609C49.4734 91.2863 68.4819 95.6646 80.1219 89.6844C89.4339 84.9003 95.6063 75.2323 97.5285 70.9963L94.4874 79.8841C86.7991 101.027 54.2443 111.918 38.9278 114.721C33.4019 126.134 47.7264 149.256 55.5794 159.391V162.98H136.76V159.687C148.127 148.32 154.598 124.127 156.413 113.452C156.824 124.004 149.474 145.296 145.747 154.623L171.1 163.097C186.188 140.062 192.949 101.421 173.022 62.5771C157.039 31.4192 124.569 21.6698 110.332 20.6898L109.601 24.7944C98.3784 5.36989 85.7405 0.873478 80.8244 1.05334Z" fill="#333333" stroke="black" stroke-width="2"/>
<rect x="45.9963" y="163.578" width="97.3452" height="12.9595" fill="#333333" stroke="black" stroke-width="2"/>
<rect x="32.9651" y="178.538" width="123.408" height="13.707" fill="#333333" stroke="black" stroke-width="2"/>
<rect x="24.658" y="194.245" width="140.022" height="13.707" fill="#333333" stroke="black" stroke-width="2"/>
</svg>
