<svg width="143" height="164" viewBox="0 0 143 164" fill="none" xmlns="http://www.w3.org/2000/svg">
<rect x="17.1729" y="36.5696" width="108.393" height="9.22081" rx="4.61041" fill="#333333" stroke="black" stroke-width="2"/>
<rect x="22.6965" y="118.059" width="97.3452" height="12.9595" fill="#333333" stroke="black" stroke-width="2"/>
<rect x="9.66522" y="133.019" width="123.408" height="13.707" fill="#333333" stroke="black" stroke-width="2"/>
<rect x="1.35809" y="148.726" width="140.022" height="13.707" fill="#333333" stroke="black" stroke-width="2"/>
<path d="M31.9161 46.7904C33.1806 47.3216 35.7096 48.7822 35.7096 50.3758C35.7096 51.9693 29.6399 96.9862 26.6051 119.295C26.0993 120.756 24.6324 123.797 22.8115 124.275C20.9906 124.753 54.4246 124.474 71.3692 124.275C88.3138 124.474 121.748 124.753 119.927 124.275C118.106 123.797 116.639 120.756 116.133 119.295C113.098 96.9862 107.029 51.9693 107.029 50.3758C107.029 48.7822 109.558 47.3216 110.822 46.7904H71.3692H31.9161Z" fill="#333333" stroke="black" stroke-width="2"/>
<path d="M125.476 1.9895L122.947 37.0642L108.737 35.9332H20.565L15.5527 2.21385H41.07L42.437 27.8071H58.9929V2.21385H83.2952V27.8071H108.737L108.501 2.26268L125.476 1.9895Z" fill="#3D3D3D" stroke="black" stroke-width="2"/>
<path d="M120.4 22.219L121.611 2.26147H125.296L123.979 22.219H124.006L123.63 27.52L123.454 30.1917H123.44L122.947 37.1537H19.7555L15.3935 2.34631H34.664L36.2297 22.219H47.5511L45.865 2.34631H72.3619V22.219H88.6214V2.34631H112.348V22.219H120.4Z" fill="#333333" stroke="black" stroke-width="2"/>
</svg>
