<svg width="143" height="205" viewBox="0 0 143 205" fill="none" xmlns="http://www.w3.org/2000/svg">
<rect x="29.8049" y="72.7178" width="82.5286" height="3.36703" rx="1.68352" fill="#333333" stroke="black" stroke-width="2"/>
<path d="M33.4635 157.304V153.281C42.976 142.324 48.7348 128.018 48.7348 112.369C48.7348 99.5919 44.8955 87.7088 38.3077 77.8137H103.831C97.2428 87.7088 93.4035 99.5919 93.4035 112.369C93.4035 128.018 99.1623 142.324 108.675 153.281V157.304H33.4635Z" fill="#333333" stroke="black" stroke-width="2"/>
<rect x="29.8049" y="77.8137" width="82.5286" height="9.22081" rx="4.61041" fill="#333333" stroke="black" stroke-width="2"/>
<rect x="22.3965" y="159.304" width="97.3452" height="12.9595" fill="#333333" stroke="black" stroke-width="2"/>
<rect x="9.3652" y="174.263" width="123.408" height="13.707" fill="#333333" stroke="black" stroke-width="2"/>
<rect x="1.05807" y="189.97" width="140.022" height="13.707" fill="#333333" stroke="black" stroke-width="2"/>
<mask id="path-7-inside-1_2_1726" fill="white">
<path fill-rule="evenodd" clip-rule="evenodd" d="M80.5598 22.6152C82.9152 20.2583 84.372 17.0032 84.372 13.4078C84.372 6.21418 78.5403 0.382568 71.3467 0.382568C64.153 0.382568 58.3214 6.21418 58.3214 13.4078C58.3214 17.0032 59.7782 20.2583 62.1336 22.6152L49.4741 37.6152L71.3467 51.7464L93.2193 37.6152L80.5598 22.6152Z"/>
</mask>
<path fill-rule="evenodd" clip-rule="evenodd" d="M80.5598 22.6152C82.9152 20.2583 84.372 17.0032 84.372 13.4078C84.372 6.21418 78.5403 0.382568 71.3467 0.382568C64.153 0.382568 58.3214 6.21418 58.3214 13.4078C58.3214 17.0032 59.7782 20.2583 62.1336 22.6152L49.4741 37.6152L71.3467 51.7464L93.2193 37.6152L80.5598 22.6152Z" fill="#333333"/>
<path d="M80.5598 22.6152L79.1452 21.2014L77.8464 22.501L79.0314 23.9052L80.5598 22.6152ZM62.1336 22.6152L63.662 23.9052L64.847 22.501L63.5482 21.2014L62.1336 22.6152ZM49.4741 37.6152L47.9457 36.3252L46.48 38.0619L48.3888 39.2951L49.4741 37.6152ZM71.3467 51.7464L70.2614 53.4263L71.3467 54.1274L72.432 53.4263L71.3467 51.7464ZM93.2193 37.6152L94.3046 39.2951L96.2134 38.0619L94.7477 36.3252L93.2193 37.6152ZM82.372 13.4078C82.372 16.4517 81.1411 19.2043 79.1452 21.2014L81.9745 24.029C84.6894 21.3124 86.372 17.5547 86.372 13.4078H82.372ZM71.3467 2.38257C77.4358 2.38257 82.372 7.31874 82.372 13.4078H86.372C86.372 5.10961 79.6449 -1.61743 71.3467 -1.61743V2.38257ZM60.3214 13.4078C60.3214 7.31874 65.2576 2.38257 71.3467 2.38257V-1.61743C63.0485 -1.61743 56.3214 5.10961 56.3214 13.4078H60.3214ZM63.5482 21.2014C61.5523 19.2043 60.3214 16.4517 60.3214 13.4078H56.3214C56.3214 17.5547 58.004 21.3124 60.7189 24.029L63.5482 21.2014ZM60.6052 21.3253L47.9457 36.3252L51.0025 38.9051L63.662 23.9052L60.6052 21.3253ZM48.3888 39.2951L70.2614 53.4263L72.432 50.0665L50.5594 35.9353L48.3888 39.2951ZM72.432 53.4263L94.3046 39.2951L92.134 35.9353L70.2614 50.0665L72.432 53.4263ZM94.7477 36.3252L82.0882 21.3253L79.0314 23.9052L91.6909 38.9051L94.7477 36.3252Z" fill="black" mask="url(#path-7-inside-1_2_1726)"/>
<path d="M36.091 74.4013C33.6564 67.7062 26.3969 52.3239 16.8355 44.3561C7.27422 36.3883 15.3969 34.5071 20.6534 34.5624C23.4129 35.1421 30.1878 37.1071 35.2111 40.3289C38.4091 42.3799 38.2243 39.4101 38.0004 35.8102C37.7846 32.3418 37.5324 28.2884 40.2344 27.5773C45.6943 26.1405 50.0144 29.9276 57.7153 36.6782L57.9127 36.8512C61.9438 40.3847 62.9733 37.0699 64.2295 33.0252C65.4117 29.2188 66.7947 24.766 71.0692 24.766C75.3436 24.766 76.7266 29.2188 77.9088 33.0252C79.165 37.0699 80.1945 40.3847 84.2256 36.8512L84.423 36.6782C92.1239 29.9276 96.444 26.1405 101.904 27.5773C104.606 28.2884 104.354 32.3418 104.138 35.8102C103.914 39.4101 103.729 42.3799 106.927 40.3289C111.951 37.1071 118.725 35.1421 121.485 34.5624C126.741 34.5071 134.864 36.3883 125.303 44.3561C115.741 52.3239 108.482 67.7062 106.047 74.4013H36.091Z" fill="#333333" stroke="black" stroke-width="2"/>
</svg>
